# xmcd CD database file
#
# Track frame offsets:
#	150
#	17997
#	35790
#	51670
#	67570
#	82517
#	97465
#	108417
#	119370
#	133517
#	147662
#	168235
#	188797
#	201062
#	213325
#	228822
#
# Disc length: 3257 seconds
#
# Revision: 1
# Processed by: cddbd v1.5.2PL0 Copyright (c) Steve Scherf et al.
# Submitted via: CDex 1.51
#
DISCID=e20cb710
DTITLE=Take the lead, Jazz Piano Teaching - Take the lead, Jazz Piano Teaching
DYEAR=1999
DGENRE=Jazz
TTITLE0=Birdland
TTITLE1=Birdland - Back
TTITLE2=Desafinado
TTITLE3=Desafinado - Back
TTITLE4=Dont get around much anymore
TTITLE5=Dont get around much anymore - Back
TTITLE6=Fascinating Rhythm
TTITLE7=Fascinating Rhythm - Back
TTITLE8=Misty
TTITLE9=Misty - Back
TTITLE10=My Funny Valentine
TTITLE11=My Funny Valentine - Back
TTITLE12=One OClock Jump
TTITLE13=One OClock Jump - Back
TTITLE14=Summertime
TTITLE15=Summertime - Back
EXTD=YEAR: 1999
EXTT0=
EXTT1=
EXTT2=
EXTT3=
EXTT4=
EXTT5=
EXTT6=
EXTT7=
EXTT8=
EXTT9=
EXTT10=
EXTT11=
EXTT12=
EXTT13=
EXTT14=
EXTT15=
PLAYORDER=
